<svg id="组_7" data-name="组 7" xmlns="http://www.w3.org/2000/svg" xmlns:xlink="http://www.w3.org/1999/xlink" width="160.423" height="167.053" viewBox="0 0 160.423 167.053">
  <defs>
    <clipPath id="clip-path">
      <rect id="矩形_21" data-name="矩形 21" width="160.423" height="167.053" fill="none"/>
    </clipPath>
  </defs>
  <g id="组_6" data-name="组 6" clip-path="url(#clip-path)">
    <path id="路径_23" data-name="路径 23" d="M123.58,177.412,91.494,161.369a5.974,5.974,0,0,1-3.3-5.344V125.351a5.974,5.974,0,0,1,8.646-5.344l32.085,16.043a5.974,5.974,0,0,1,3.3,5.343v30.675a5.974,5.974,0,0,1-8.646,5.344" transform="translate(-50.422 -68.247)" fill="#b0e237"/>
    <path id="路径_24" data-name="路径 24" d="M210.286,46.714l24.906-12.453a5.974,5.974,0,0,0,3.3-5.344V5.308A5.3,5.3,0,0,0,230.823.567L205.917,13.02a5.974,5.974,0,0,0-3.3,5.344V41.974a5.3,5.3,0,0,0,7.671,4.741" transform="translate(-115.841 0)" fill="#c0e767"/>
    <path id="路径_25" data-name="路径 25" d="M209.107,140.981l13.482-6.741a5.974,5.974,0,0,0,3.3-5.344V116.571a4.485,4.485,0,0,0-6.491-4.012L205.918,119.3a5.974,5.974,0,0,0-3.3,5.344V136.97a4.485,4.485,0,0,0,6.491,4.012" transform="translate(-115.842 -64.079)" fill="#d0ee90"/>
    <rect id="矩形_17" data-name="矩形 17" width="3.701" height="18.197" transform="translate(134.759 124.516)" fill="#fff"/>
    <path id="路径_26" data-name="路径 26" d="M348.659,290.742h-19.42v3.322h7.86v14.876h3.7V294.064h7.86Z" transform="translate(-188.236 -166.226)" fill="#fff"/>
    <path id="路径_27" data-name="路径 27" d="M20.654,298.18H3.7v-4.116H20.654v-3.322H1.136A1.181,1.181,0,0,0,0,291.961V301.5H16.953v4.116H0v3.322H19.518a1.181,1.181,0,0,0,1.136-1.219Z" transform="translate(0 -166.226)" fill="#fff"/>
    <path id="路径_28" data-name="路径 28" d="M177.341,294.064v-3.322H159.057a1.181,1.181,0,0,0-1.136,1.219v15.76a1.181,1.181,0,0,0,1.136,1.218h18.284v-3.321H161.622V294.064Z" transform="translate(-90.288 -166.226)" fill="#fff"/>
    <path id="路径_29" data-name="路径 29" d="M73.688,290.742H54.17v3.322H71.123v4.116H54.17v10.759h3.7V301.5H73.688a1.181,1.181,0,0,0,1.136-1.219v-8.322a1.181,1.181,0,0,0-1.136-1.219" transform="translate(-30.971 -166.226)" fill="#fff"/>
    <path id="路径_30" data-name="路径 30" d="M209.207,308.109v9.541a1.181,1.181,0,0,0,1.136,1.219h18.284v-3.322H212.908v-4.116h15.719v-3.322Z" transform="translate(-119.61 -176.155)" fill="#fff"/>
    <path id="路径_31" data-name="路径 31" d="M210.343,290.742a1.181,1.181,0,0,0-1.136,1.219v2.1h19.42v-3.322Z" transform="translate(-119.61 -166.226)" fill="#fff"/>
    <path id="路径_32" data-name="路径 32" d="M116.3,291.6a1.509,1.509,0,0,0-1.358-.853h-3.1a1.508,1.508,0,0,0-1.358.853l-8.368,17.344h4.067l7.211-14.947,5.609,11.626h-5.609v3.321h11.278Z" transform="translate(-58.378 -166.227)" fill="#fff"/>
    <path id="路径_33" data-name="路径 33" d="M277.9,290.744,270.817,301.3l-7.084-10.553h-3.244v18.2h3.7V297.115l5.435,8.1a.9.9,0,0,0,.752.4h.882a.9.9,0,0,0,.752-.4l5.434-8.1v11.822h3.7v-18.2Z" transform="translate(-148.929 -166.227)" fill="#fff"/>
    <path id="路径_34" data-name="路径 34" d="M136.325,359.893h-2.572v1.941h1.2V371h-1.2v1.82H155.62V371h-18.4V360.8a.9.9,0,0,0-.895-.91" transform="translate(-76.471 -205.762)" fill="#fff"/>
    <rect id="矩形_18" data-name="矩形 18" width="2.266" height="2.826" transform="translate(58.483 149.648)" fill="#fff"/>
    <path id="路径_35" data-name="路径 35" d="M225.834,352.9H227.5v-1.82h-1.666v-1.654h-2.266v1.654h-6.962v1.82h6.962V365.01h-4.745v1.82h5.521a1.505,1.505,0,0,0,1.49-1.516Z" transform="translate(-123.84 -199.776)" fill="#fff"/>
    <path id="路径_36" data-name="路径 36" d="M269.052,367.353v-1.82h-1.127l-3.6-3.784h-2.863l3.6,3.784h-12.64l3.6-3.784h-2.863l-3.6,3.784h-1.127v1.82h9.177v4.7h-9.153v1.82h20.62v-1.82h-9.2v-4.7Z" transform="translate(-142.036 -206.823)" fill="#fff"/>
    <path id="路径_37" data-name="路径 37" d="M247.374,351.989V354.7h2.266v-1.8h16.995v1.8H268.9v-2.714a.9.9,0,0,0-.895-.91H259.27v-1.654H257v1.654h-8.735a.9.9,0,0,0-.895.91" transform="translate(-141.431 -199.777)" fill="#fff"/>
    <path id="路径_38" data-name="路径 38" d="M152,361.613a5.771,5.771,0,0,0,1.925-1.535l.228-.278.228.278a5.766,5.766,0,0,0,1.925,1.535l4.839,2.382.987-2.074-4.839-2.382a3.576,3.576,0,0,1-1.447-1.316l-.29-.464h6.528v-1.941h-6.8V352.9h6.8v-1.82h-6.8v-1.654h-2.266v1.654h-4.532v-1.654h-2.266v2.564a.9.9,0,0,0,.895.91h5.9v2.92H146.1v1.941h6.647l-.29.464a3.574,3.574,0,0,1-1.446,1.316l-4.839,2.382.987,2.074Z" transform="translate(-83.532 -199.776)" fill="#fff"/>
    <path id="路径_39" data-name="路径 39" d="M79.519,359.893H76.947v1.941h1.2V371h-1.2v1.82H98.814V371h-18.4V360.8a.9.9,0,0,0-.895-.91" transform="translate(-43.993 -205.762)" fill="#fff"/>
    <rect id="矩形_19" data-name="矩形 19" width="2.266" height="2.826" transform="translate(34.155 149.648)" fill="#fff"/>
    <path id="路径_40" data-name="路径 40" d="M92.748,362.291a6.007,6.007,0,0,0,2.287-3.351l.059-.224h5.02v5.3h2.266v-5.3h2.829V356.9H102.38v-4h2.829v-1.82H102.38v-1.654h-2.266v1.654H95.237v-1.654H92.971v1.654h-3.6v1.82h3.6v4h-3.6v1.82h3.4l-.239.446a3.685,3.685,0,0,1-1.086,1.248l-2.35,1.691,1.309,1.881Zm2.489-9.393h4.878v4H95.237Z" transform="translate(-50.935 -199.776)" fill="#fff"/>
    <rect id="矩形_20" data-name="矩形 20" width="15.425" height="1.941" transform="translate(84.302 157.12)" fill="#fff"/>
    <path id="路径_41" data-name="路径 41" d="M198.766,360.63v5.051h-4.949V352.418h4.949v4.027h2.266V350.6h-9.482v16.9h8.587a.9.9,0,0,0,.9-.91V360.63Z" transform="translate(-109.515 -200.447)" fill="#fff"/>
  </g>
</svg>
